Coordinates
version=1
nRows=30
nColumns=33
inDegrees=yes

Units are S.I. units (second, meters, Newtons, ...)
Angles are in degrees.

endheader
time	ground_thorax_rot_x	ground_thorax_rot_y	ground_thorax_rot_z	ground_thorax_tx	ground_thorax_ty	ground_thorax_tz	clav_prot_r	clav_elev_r	scapula_abduction_r	scapula_elevation_r	scapula_upward_rot_r	scapula_winging_r	shoulder_elv_r	plane_of_elev_r	axial_rot_r	elbow_flexion_r	pro_sup_r	wrist_flex_r	wrist_dev_r	clav_prot_l	clav_elev_l	scapula_abduction_l	scapula_elevation_l	scapula_upward_rot_l	scapula_winging_l	shoulder_elv_l	plane_of_elev_l	axial_rot_l	elbow_flexion_l	pro_sup_l	wrist_flex_l	wrist_dev_l	
13.3800	-35.142396	7.841409	-5.442255	56.875621	757.268003	-33.266795	11.364452	-45.000000	45.000000	-45.000000	-0.773188	-1165.786333	-3171.576587	20.186545	180.000000	1804.301311	-173.888854	10.810650	12.613432	19.120888	24.494583	-44.999999	-42.335001	-45.000000	-2452.615269	-981.245339	21.491166	-180.000000	1074.225286	478.834512	10.270365	-7.855999	
13.3900	-35.257003	7.879360	-5.297990	56.448114	757.098981	-33.204670	11.490521	-45.000000	45.000000	-45.000000	-0.888111	-1165.791290	-3171.606538	20.116597	180.000000	1804.391156	-174.835862	10.736145	12.689386	19.196608	24.594252	-44.999998	-42.373109	-45.000000	-2452.601458	-981.393801	21.435424	-180.000000	1074.383688	479.131580	10.147524	-7.986471	
13.4000	-35.384247	7.934126	-5.204235	55.986993	756.944305	-33.139285	11.702466	-45.000000	44.999999	-45.000000	-1.059294	-1165.765613	-3171.633859	20.065921	180.000000	1804.455866	-175.735679	10.704043	12.766484	19.287892	24.738905	-44.999996	-42.482757	-45.000000	-2452.643912	-981.568530	21.330824	-180.000000	1074.519747	479.394071	10.107999	-8.181574	
13.4100	-35.502062	8.017374	-5.138399	55.452054	756.822086	-33.067818	11.808551	-45.000000	44.999999	-45.000000	-1.163532	-1165.768420	-3171.657451	20.036714	180.000000	1804.518093	-176.452205	10.674715	12.831385	19.336619	24.828596	-44.999992	-42.553052	-45.000000	-2452.639412	-981.692072	21.257700	-180.000000	1074.640399	479.603158	10.038517	-8.322108	
13.4200	-35.617598	8.129104	-5.107750	54.839100	756.734239	-32.989319	11.862036	-45.000000	44.999998	-45.000000	-1.240306	-1165.790835	-3171.677183	20.031511	180.000000	1804.568501	-177.018039	10.651482	12.886889	19.376247	24.907925	-44.999987	-42.616768	-45.000000	-2452.602747	-981.789745	21.206933	-180.000000	1074.731514	479.761370	9.945940	-8.415359	
13.4300	-35.733607	8.266098	-5.112493	54.137783	756.685435	-32.902608	11.889367	-45.000000	44.999997	-45.000000	-1.285214	-1165.820712	-3171.694201	20.039119	180.000000	1804.608264	-177.441074	10.650929	12.933226	19.399395	24.982662	-44.999976	-42.690196	-45.000000	-2452.567260	-981.865924	21.151953	-180.000000	1074.809427	479.859074	9.874715	-8.503820	
13.4400	-35.848084	8.421579	-5.139423	53.346800	756.676462	-32.807208	11.880196	-45.000000	44.999994	-45.000000	-1.296737	-1165.871261	-3171.707742	20.060430	180.000000	1804.645245	-177.753645	10.652798	12.971457	19.426539	25.066913	-44.999957	-42.762955	-45.000000	-2452.507179	-981.931318	21.117201	-180.000000	1074.869004	479.915319	9.774151	-8.548436	
13.4500	-35.966082	8.590417	-5.180751	52.468094	756.706548	-32.702999	11.881085	-45.000000	44.999990	-45.000000	-1.274940	-1165.923772	-3171.720794	20.072011	180.000000	1804.684152	-177.994696	10.679404	13.004955	19.448938	25.167354	-44.999922	-42.862981	-45.000000	-2452.473684	-981.996493	21.063791	-180.000000	1074.929094	479.933680	9.714706	-8.623226	
13.4600	-36.082673	8.772085	-5.230002	51.502474	756.775327	-32.589964	11.851313	-45.000000	44.999982	-45.000000	-1.216931	-1166.001213	-3171.734803	20.086104	180.000000	1804.724041	-178.178424	10.698074	13.032074	19.484043	25.288020	-44.999861	-42.959867	-45.000000	-2452.410051	-982.053370	21.038989	-180.000000	1074.973622	479.947995	9.609307	-8.650457	
13.4700	-36.198599	8.965232	-5.295036	50.449595	756.882442	-32.468048	11.829827	-45.000000	44.999968	-45.000000	-1.135772	-1166.076311	-3171.745333	20.090778	180.000000	1804.756327	-178.317455	10.736508	13.052547	19.512349	25.420530	-44.999751	-43.077845	-45.000000	-2452.372153	-982.103851	20.996141	-180.000000	1075.022395	479.962008	9.544503	-8.706968	
13.4800	-36.310600	9.172055	-5.373802	49.308422	757.027496	-32.337256	11.788180	-45.000000	44.999943	-45.000000	-1.028712	-1166.173596	-3171.755050	20.104751	180.000000	1804.789121	-178.410065	10.774659	13.068742	19.545699	25.566773	-44.999554	-43.200491	-45.000000	-2452.315397	-982.148428	20.974144	-180.000000	1075.057227	480.004799	9.454385	-8.739539	
13.4900	-36.420822	9.394619	-5.469564	48.077468	757.209845	-32.197827	11.748411	-45.000000	44.999898	-45.000000	-0.905628	-1166.265795	-3171.759563	20.106364	180.000000	1804.810695	-178.453048	10.830314	13.077858	19.569573	25.714161	-44.999201	-43.342226	-45.000000	-2452.282033	-982.180594	20.935743	-180.000000	1075.089831	480.077644	9.413421	-8.809801	
13.5000	-36.525360	9.628497	-5.581618	46.754304	757.428659	-32.050367	11.694945	-45.000000	44.999817	-45.000000	-0.778025	-1166.378104	-3171.761428	20.123944	180.000000	1804.826211	-178.439400	10.886917	13.081835	19.595853	25.869734	-44.998570	-43.481827	-45.000000	-2452.226756	-982.203599	20.916337	-180.000000	1075.108365	480.203975	9.351442	-8.855945	
13.5100	-36.630186	9.870005	-5.705019	45.336463	757.682863	-31.896129	11.647577	-45.000000	44.999672	-45.000000	-0.645377	-1166.485245	-3171.759064	20.135829	180.000000	1804.833088	-178.368019	10.954654	13.081125	19.612241	26.021250	-44.997437	-43.633214	-45.000000	-2452.187147	-982.223067	20.882945	-180.000000	1075.133472	480.379673	9.331140	-8.930297	
13.5200	-36.726917	10.106887	-5.830275	43.820101	757.971635	-31.736945	11.598850	-45.000000	44.999413	-45.000000	-0.515731	-1166.616588	-3171.751408	20.163216	180.000000	1804.845698	-178.238332	11.032024	13.079497	19.619674	26.163028	-44.995411	-43.777386	-45.000000	-2452.130594	-982.250050	20.861912	-180.000000	1075.156263	480.617007	9.302991	-8.996139	
13.5300	-36.819965	10.344069	-5.959037	42.202156	758.294241	-31.575426	11.560165	-45.000000	44.998949	-45.000000	-0.391796	-1166.752611	-3171.737684	20.182698	180.000000	1804.849209	-178.053216	11.115287	13.075117	19.620127	26.309718	-44.991775	-43.926306	-45.000000	-2452.084136	-982.279585	20.831296	-180.000000	1075.178367	480.911954	9.302934	-9.080007	
13.5400	-36.900735	10.572874	-6.089091	40.479040	758.650493	-31.414604	11.524998	-45.000000	44.998116	-45.000000	-0.287183	-1166.914346	-3171.717030	20.217497	180.000000	1804.852010	-177.821913	11.209445	13.070898	19.617021	26.454359	-44.985281	-44.059653	-45.000000	-2452.018190	-982.313905	20.812894	-180.000000	1075.193361	481.266307	9.289208	-9.149253	
13.5500	-36.979475	10.797784	-6.216272	38.648860	759.040489	-31.257864	11.502772	-45.000000	44.996627	-45.000000	-0.193609	-1167.082553	-3171.695418	20.245509	180.000000	1804.847466	-177.554827	11.303481	13.068674	19.605318	26.608052	-44.973595	-44.194276	-45.000000	-2451.960281	-982.351532	20.784954	-180.000000	1075.208122	481.667738	9.296282	-9.229072	
13.5600	-37.049532	11.006610	-6.334194	36.709595	759.464949	-31.108307	11.487973	-45.000000	44.993954	-45.000000	-0.132991	-1167.269190	-3171.671461	20.282827	180.000000	1804.844330	-177.266770	11.414954	13.071271	19.579250	26.743462	-44.952811	-44.308050	-45.000000	-2451.884706	-982.390244	20.761755	-180.000000	1075.219003	482.109808	9.306630	-9.304595	
13.5700	-37.122893	11.195997	-6.431783	34.661261	759.924651	-30.968596	11.495400	-45.000000	44.989179	-45.000000	-0.112204	-1167.455832	-3171.651213	20.311342	180.000000	1804.831367	-176.966966	11.519815	13.078369	19.527785	26.879919	-44.915163	-44.422712	-45.000000	-2451.823320	-982.430272	20.720573	-180.000000	1075.230504	482.586960	9.342236	-9.387820	
13.5800	-37.196898	11.339478	-6.487438	32.504432	760.420465	-30.840447	11.527327	-45.000000	44.980591	-45.000000	-0.169213	-1167.650049	-3171.634079	20.346872	180.000000	1804.820613	-176.671040	11.643062	13.094006	19.448582	26.993963	-44.848891	-44.520284	-45.000000	-2451.746459	-982.483350	20.682732	-180.000000	1075.245720	483.103902	9.378101	-9.458828	
13.5900	-37.279760	11.410693	-6.471247	30.241271	760.953005	-30.724677	11.610757	-45.000000	44.965303	-45.000000	-0.333106	-1167.838602	-3171.618828	20.377319	180.000000	1804.803413	-176.384881	11.751294	13.115899	19.310978	27.089322	-44.726925	-44.623616	-45.000000	-2451.696845	-982.554328	20.622899	-180.000000	1075.275988	483.677245	9.440096	-9.530381	
13.6000	-37.364039	11.357441	-6.337526	27.874526	761.522682	-30.621167	11.760990	-45.000000	44.937654	-45.000000	-0.690469	-1168.026247	-3171.592145	20.416294	180.000000	1804.787115	-176.120373	11.876322	13.144147	19.104531	27.152311	-44.517530	-44.709920	-45.000000	-2451.644355	-982.652901	20.563047	-180.000000	1075.319748	484.350826	9.504903	-9.584006	
13.6100	-37.453561	11.130920	-6.035234	25.408310	762.129672	-30.529315	12.018543	-45.000000	44.888860	-45.000000	-1.311751	-1168.204527	-3171.548382	20.456778	180.000000	1804.759049	-175.878730	11.983884	13.175081	18.784798	27.188587	-44.177293	-44.798106	-45.000000	-2451.634935	-982.777821	20.470992	-180.000000	1075.388555	485.193078	9.602396	-9.639526	
13.6200	-37.548925	10.653602	-5.476115	22.848112	762.774031	-30.448372	12.410887	-45.000000	44.799411	-45.000000	-2.321487	-1168.376184	-3171.485337	20.504184	180.000000	1804.732226	-175.667601	12.104246	13.212133	18.337740	27.198460	-43.670274	-44.868575	-45.000000	-2451.622294	-982.945875	20.360237	-180.000000	1075.487477	486.337552	9.711095	-9.693477	
13.6300	-37.643804	9.860410	-4.589850	20.199904	763.456132	-30.377754	12.972775	-45.000000	44.644891	-45.000000	-3.818652	-1168.536247	-3171.391010	20.562211	180.000000	1804.700995	-175.482977	12.204687	13.254614	17.703654	27.169733	-42.951327	-44.927677	-45.000000	-2451.629035	-983.149421	20.203300	-180.000000	1075.636547	487.933094	9.859978	-9.775212	
13.6400	-37.720322	8.592971	-3.188634	17.470416	764.176672	-30.317182	13.762939	-45.000000	44.352165	-45.000000	-6.079836	-1168.679627	-3171.246933	20.650002	180.000000	1804.685139	-175.319890	12.312897	13.308996	16.837100	27.125716	-41.952527	-44.962627	-45.000000	-2451.589988	-983.413768	20.001942	-180.000000	1075.867916	490.359847	10.031100	-9.913498	
13.6500	-37.764772	6.797731	-1.209419	14.666264	764.936621	-30.266595	14.793078	-45.000000	43.872291	-45.000000	-9.206891	-1168.792967	-3171.037768	20.775646	180.000000	1804.680958	-175.167672	12.401563	13.375130	15.703626	27.062019	-40.648927	-44.985944	-45.000000	-2451.510416	-983.731189	19.735779	-180.000000	1076.207085	493.823205	10.245088	-10.148983	
13.6600	-37.687976	3.833422	2.100613	11.794132	765.737427	-30.225921	16.316468	-45.000000	42.888534	-45.000000	-14.324209	-1168.828560	-3170.658243	21.007886	180.000000	1804.717326	-174.979733	12.489288	13.458054	14.033508	27.023723	-38.726762	-44.995986	-45.000000	-2451.254931	-984.186233	19.349265	-180.000000	1076.805835	499.808096	10.509515	-10.626864	
13.6700	-37.519707	0.096039	6.303939	8.860088	766.579349	-30.194730	18.110756	-45.000000	41.472920	-45.000000	-20.842651	-1168.785649	-3170.132402	21.338153	180.000000	1804.779793	-174.760877	12.558722	13.558482	12.023556	27.001774	-36.409325	-45.000000	-45.000000	-2450.867150	-984.707469	18.885933	-180.000000	1077.592905	507.651714	10.812009	-11.304704	
